<?xml version="1.0" standalone="no"?>
<!DOCTYPE svg PUBLIC "-//W3C//DTD SVG 20010904//EN"
 "http://www.w3.org/TR/2001/REC-SVG-20010904/DTD/svg10.dtd">
<svg version="1.0" xmlns="http://www.w3.org/2000/svg"
 width="512.000000pt" height="512.000000pt" viewBox="0 0 512.000000 512.000000"
 preserveAspectRatio="xMidYMid meet">

<g transform="translate(0.000000,512.000000) scale(0.100000,-0.100000)"
fill="#000000" stroke="none">
<path d="M2425 5114 c-480 -45 -876 -227 -1199 -550 -447 -447 -644 -1089
-516 -1675 50 -224 126 -426 240 -632 67 -121 1386 -2125 1428 -2170 104 -111
260 -111 364 0 25 27 1180 1769 1340 2023 252 398 380 816 364 1185 -13 294
-71 527 -195 773 -98 195 -205 344 -357 496 -285 284 -642 467 -1039 531 -95
15 -352 27 -430 19z m395 -240 c530 -77 1024 -447 1246 -932 112 -244 157
-446 157 -707 0 -123 -4 -172 -26 -275 -50 -239 -132 -445 -272 -678 -124
-208 -1351 -2057 -1365 -2057 -14 0 -1241 1849 -1365 2057 -131 219 -208 403
-260 623 -81 343 -42 687 119 1037 227 496 740 871 1281 937 178 22 311 21
485 -5z"/>
<path d="M2390 4215 c-338 -61 -617 -286 -753 -605 -126 -297 -93 -653 84
-924 143 -217 344 -360 609 -433 92 -25 368 -25 460 0 265 73 466 216 609 433
140 213 192 487 141 734 -73 356 -325 642 -667 759 -145 49 -333 63 -483 36z
m267 -216 c168 -23 312 -91 433 -205 251 -237 318 -594 170 -901 -98 -202
-278 -352 -497 -415 -111 -32 -295 -32 -406 0 -387 111 -631 491 -563 878 58
333 325 595 656 642 91 13 118 13 207 1z"/>
</g>
</svg>
