<svg xmlns="http://www.w3.org/2000/svg" width="377.574" height="511.281" viewBox="0 0 377.574 511.281">
  <g id="icon-3" transform="translate(-67.16 511.656)">
    <path id="Path_8" data-name="Path 8" d="M242.5-511.4c-48,4.5-87.6,22.7-119.9,55C77.9-411.7,58.2-347.5,71-288.9a231.281,231.281,0,0,0,24,63.2c6.7,12.1,138.6,212.5,142.8,217,10.4,11.1,26,11.1,36.4,0,2.5-2.7,118-176.9,134-202.3,25.2-39.8,38-81.6,36.4-118.5-1.3-29.4-7.1-52.7-19.5-77.3a181.844,181.844,0,0,0-35.7-49.6,188.462,188.462,0,0,0-103.9-53.1C276-511,250.3-512.2,242.5-511.4Zm39.5,24c53,7.7,102.4,44.7,124.6,93.2,11.2,24.4,15.7,44.6,15.7,70.7,0,12.3-.4,17.2-2.6,27.5-5,23.9-13.2,44.5-27.2,67.8C380.1-207.4,257.4-22.5,256-22.5S131.9-207.4,119.5-228.2c-13.1-21.9-20.8-40.3-26-62.3-8.1-34.3-4.2-68.7,11.9-103.7,22.7-49.6,74-87.1,128.1-93.7C251.3-490.1,264.6-490,282-487.4Z" fill="#e8c582"/>
    <path id="Path_9" data-name="Path 9" d="M239-421.5c-33.8,6.1-61.7,28.6-75.3,60.5-12.6,29.7-9.3,65.3,8.4,92.4,14.3,21.7,34.4,36,60.9,43.3,9.2,2.5,36.8,2.5,46,0,26.5-7.3,46.6-21.6,60.9-43.3A99.63,99.63,0,0,0,354-342a101.325,101.325,0,0,0-66.7-75.9A104.1,104.1,0,0,0,239-421.5Zm26.7,21.6A76.658,76.658,0,0,1,309-379.4c25.1,23.7,31.8,59.4,17,90.1a79.3,79.3,0,0,1-49.7,41.5c-11.1,3.2-29.5,3.2-40.6,0-38.7-11.1-63.1-49.1-56.3-87.8,5.8-33.3,32.5-59.5,65.6-64.2C254.1-401.1,256.8-401.1,265.7-399.9Z" fill="#e8c582"/>
  </g>
</svg>
