<svg xmlns="http://www.w3.org/2000/svg" width="511.297" height="511.569" viewBox="0 0 511.297 511.569">
  <g id="icon-2" transform="translate(-0.55 511.696)">
    <path id="Path_1" data-name="Path 1" d="M237-511.4c-1.9.2-7.8.9-13,1.5-79.1,9-152.2,58.6-192.4,130.5C17-353.2,6.4-320.6,1.9-288c-1.8,12.5-1.8,51.5,0,64C12.4-147.8,53-83.1,116.5-41.4c60.9,40,137.7,51.7,209,31.7,92.9-26,164.6-104.3,181.9-198.7,15.6-84.5-10.3-168.2-70.5-228.5C397-476.7,349-500.8,292-509.5,282-511,244.8-512.3,237-511.4ZM276.5-481c49.8,4.6,97.7,26.3,134.8,61,30.3,28.4,54.2,69.5,64,110.1,4.9,20.1,6.1,30.9,6.1,53.9s-1.2,33.8-6.1,53.9c-7.8,32.5-24.6,65.3-47.1,92.1C398.6-74.6,355-47.6,309.9-36.7c-20.1,4.9-30.9,6.1-53.9,6.1-23.1,0-33.8-1.2-54-6.1-39.6-9.6-81-33.4-108.7-62.6C47.7-147.3,25.1-211.8,31-276.5c5.4-58.3,34.5-114.3,79-151.8C156.4-467.3,216.9-486.5,276.5-481Z" fill="#e8c582"/>
    <path id="Path_2" data-name="Path 2" d="M75.7-321.2c-2.4,2.6-2.2,8.5.4,10.8,1.7,1.5,4,1.9,12.5,2.2l10.4.4V-251c0,55.9,0,56.8,2.1,59.4a7.476,7.476,0,0,0,10.9.6c2-2,2-3.3,2-65s0-63-2-65c-1.8-1.8-3.3-2-18.3-2C79.1-323,77.1-322.8,75.7-321.2Z" fill="#e8c582"/>
    <path id="Path_3" data-name="Path 3" d="M156.2-321.1A43.141,43.141,0,0,0,131.8-297c-2.2,5.2-2.3,7.1-2.6,38.2-.4,35.8.2,40.5,5.5,49.8,3.6,6.2,11.1,13.2,18,16.6,5.4,2.7,6.7,2.9,17.3,2.9,10.5,0,12-.2,17.1-2.8a41.52,41.52,0,0,0,22.4-27.2c2.2-8.6,2.2-64.4,0-73a41.57,41.57,0,0,0-22.4-27.2C179.4-323.4,164.3-324.1,156.2-321.1Zm25.9,15.9a27.139,27.139,0,0,1,12.9,16c1.3,4.9,1.3,61.5,0,66.4A25.537,25.537,0,0,1,170.4-204c-10.6,0-18-4.3-23-13.2l-2.9-5.3-.3-31.2c-.2-19.9.1-32.6.8-35.2a27.093,27.093,0,0,1,12.9-16.3c4.3-2.3,6.6-2.8,12.1-2.8S177.8-307.5,182.1-305.2Z" fill="#e8c582"/>
    <path id="Path_4" data-name="Path 4" d="M254.5-321.6a40.906,40.906,0,0,0-26.4,26.4c-2,5.7-2.1,8.4-2.1,39.2s.1,33.5,2.1,39.2A41.44,41.44,0,0,0,250-192.1c4.9,2.3,6.7,2.6,16.5,2.6,10.4,0,11.4-.2,17.7-3.3a41.241,41.241,0,0,0,22.9-32c.4-3.7.8-17.7.8-31.2s-.4-27.5-.8-31.2A41.534,41.534,0,0,0,284-319.4c-5.7-2.7-7.7-3.1-16-3.3C262.2-322.9,256.9-322.4,254.5-321.6Zm21.9,15c5,2.1,11.2,8.1,13.8,13.4,2.3,4.6,2.3,5.3,2.3,37.2s0,32.6-2.3,37.2c-2.6,5.3-8.8,11.3-13.8,13.4-1.8.8-6.2,1.4-9.8,1.4a21.173,21.173,0,0,1-11.7-2.8c-6-3.1-11.3-9.3-12.9-15-1.3-4.9-1.3-63.5,0-68.4,1.6-5.7,6.9-11.9,12.9-15a21.174,21.174,0,0,1,11.7-2.8C270.2-308,274.6-307.4,276.4-306.6Z" fill="#e8c582"/>
    <path id="Path_5" data-name="Path 5" d="M339.5-321.1c-5.6,2.5-13,11-15,17.2-2.4,7-1.7,19.8,1.3,25.6,5.4,10.5,13.6,15.8,24.2,15.8,15.6-.1,27-12.9,27-30.4,0-9-2.2-15-7.8-21.2-5.9-6.6-10.8-8.9-19.2-8.9A25.937,25.937,0,0,0,339.5-321.1Zm16.9,15.2c3.8,3,5.6,7.1,5.6,12.9,0,6.4-2.4,11.7-6.4,14.1C347-273.6,338-280.8,338-293c0-8.8,5-15,12-15A10.669,10.669,0,0,1,356.4-305.9Z" fill="#e8c582"/>
    <path id="Path_6" data-name="Path 6" d="M398.7-316.3c-1.9,2.2-47.7,111.1-47.7,113.6,0,1,1.1,2.9,2.5,4.2,3.1,3.2,7.5,3.3,10.2.2C366.3-201.2,411-308,411-311.4,411-317,402.5-320.4,398.7-316.3Z" fill="#e8c582"/>
    <path id="Path_7" data-name="Path 7" d="M404-248.8c-8,2.1-16.6,11-19,19.6-1.5,5.5-1.2,16.2.6,21.5,2,5.9,9.1,13.9,14.7,16.6,5.9,2.9,15.5,2.9,21.4,0,5.8-2.8,12.8-10.8,14.8-17,2.7-7.9,1.7-19.9-2-26.8C428.1-246.6,416.1-252.1,404-248.8Zm12.6,15.7c4,2.4,6.4,7.7,6.4,14.1,0,8.8-5,15-12,15s-12-6.2-12-15c0-9,5.3-16,12-16A13.785,13.785,0,0,1,416.6-233.1Z" fill="#e8c582"/>
  </g>
</svg>
