<?xml version="1.0" standalone="no"?>
<!DOCTYPE svg PUBLIC "-//W3C//DTD SVG 20010904//EN"
 "http://www.w3.org/TR/2001/REC-SVG-20010904/DTD/svg10.dtd">
<svg version="1.0" xmlns="http://www.w3.org/2000/svg"
 width="512.000000pt" height="512.000000pt" viewBox="0 0 512.000000 512.000000"
 preserveAspectRatio="xMidYMid meet">

<g transform="translate(0.000000,512.000000) scale(0.100000,-0.100000)"
fill="#000000" stroke="red">
<path d="M2370 5114 c-19 -2 -78 -9 -130 -15 -791 -90 -1522 -586 -1924 -1305
-146 -262 -252 -588 -297 -914 -18 -125 -18 -515 0 -640 105 -762 511 -1409
1146 -1826 609 -400 1377 -517 2090 -317 929 260 1646 1043 1819 1987 156 845
-103 1682 -705 2285 -399 398 -879 639 -1449 726 -100 15 -472 28 -550 19z
m395 -304 c498 -46 977 -263 1348 -610 303 -284 542 -695 640 -1101 49 -201
61 -309 61 -539 0 -230 -12 -338 -61 -539 -78 -325 -246 -653 -471 -921 -296
-354 -732 -624 -1183 -733 -201 -49 -309 -61 -539 -61 -231 0 -338 12 -540 61
-396 96 -810 334 -1087 626 -456 480 -682 1125 -623 1772 54 583 345 1143 790
1518 464 390 1069 582 1665 527z"/>
<path d="M757 3212 c-24 -26 -22 -85 4 -108 17 -15 40 -19 125 -22 l104 -4 0
-568 c0 -559 0 -568 21 -594 26 -33 79 -36 109 -6 20 20 20 33 20 650 0 617 0
630 -20 650 -18 18 -33 20 -183 20 -146 0 -166 -2 -180 -18z"/>
<path d="M1562 3211 c-109 -41 -199 -130 -244 -241 -22 -52 -23 -71 -26 -382
-4 -358 2 -405 55 -498 36 -62 111 -132 180 -166 54 -27 67 -29 173 -29 105 0
120 2 171 28 113 55 193 152 224 272 22 86 22 644 0 730 -31 120 -112 218
-224 272 -77 37 -228 44 -309 14z m259 -159 c59 -30 111 -95 129 -160 13 -49
13 -615 0 -664 -32 -112 -131 -188 -246 -188 -106 0 -180 43 -230 132 l-29 53
-3 312 c-2 199 1 326 8 352 18 67 69 132 129 163 43 23 66 28 121 28 55 0 78
-5 121 -28z"/>
<path d="M2545 3216 c-126 -41 -221 -136 -264 -264 -20 -57 -21 -84 -21 -392
0 -308 1 -335 21 -392 37 -111 113 -196 219 -247 49 -23 67 -26 165 -26 104 0
114 2 177 33 126 62 211 180 229 320 4 37 8 177 8 312 0 135 -4 275 -8 312
-18 140 -106 263 -231 322 -57 27 -77 31 -160 33 -58 2 -111 -3 -135 -11z
m219 -150 c50 -21 112 -81 138 -134 23 -46 23 -53 23 -372 0 -319 0 -326 -23
-372 -26 -53 -88 -113 -138 -134 -18 -8 -62 -14 -98 -14 -50 0 -75 6 -117 28
-60 31 -113 93 -129 150 -13 49 -13 635 0 684 16 57 69 119 129 150 42 22 67
28 117 28 36 0 80 -6 98 -14z"/>
<path d="M3395 3211 c-56 -25 -130 -110 -150 -172 -24 -70 -17 -198 13 -256
54 -105 136 -158 242 -158 156 1 270 129 270 304 0 90 -22 150 -78 212 -59 66
-108 89 -192 89 -42 0 -79 -7 -105 -19z m169 -152 c38 -30 56 -71 56 -129 0
-64 -24 -117 -64 -141 -86 -53 -176 19 -176 141 0 88 50 150 120 150 23 0 48
-8 64 -21z"/>
<path d="M3987 3163 c-19 -22 -477 -1111 -477 -1136 0 -10 11 -29 25 -42 31
-32 75 -33 102 -2 26 29 473 1097 473 1131 0 56 -85 90 -123 49z"/>
<path d="M4040 2488 c-80 -21 -166 -110 -190 -196 -15 -55 -12 -162 6 -215 20
-59 91 -139 147 -166 59 -29 155 -29 214 0 58 28 128 108 148 170 27 79 17
199 -20 268 -64 117 -184 172 -305 139z m126 -157 c40 -24 64 -77 64 -141 0
-88 -50 -150 -120 -150 -70 0 -120 62 -120 150 0 90 53 160 120 160 14 0 39
-9 56 -19z"/>
</g>
</svg>
