<?xml version="1.0" standalone="no"?>
<!DOCTYPE svg PUBLIC "-//W3C//DTD SVG 20010904//EN"
 "http://www.w3.org/TR/2001/REC-SVG-20010904/DTD/svg10.dtd">
<svg version="1.0" xmlns="http://www.w3.org/2000/svg"
 width="3054.000000pt" height="3126.000000pt" viewBox="0 0 3054.000000 3126.000000"
 preserveAspectRatio="xMidYMid meet">

<g transform="translate(0.000000,3126.000000) scale(0.100000,-0.100000)"
fill="#000000" stroke="none">
<path d="M14815 31240 c-919 -66 -1754 -272 -2580 -637 -1083 -479 -2062
-1223 -2810 -2138 -865 -1057 -1413 -2301 -1604 -3640 -82 -575 -95 -1245 -35
-1840 74 -737 267 -1486 561 -2182 90 -212 310 -649 429 -853 1115 -1908 2993
-3236 5121 -3620 486 -88 801 -115 1353 -115 544 0 819 23 1300 106 1987 343
3809 1519 4952 3194 759 1113 1187 2356 1277 3709 14 200 14 752 1 951 -124
1865 -899 3575 -2220 4895 -738 739 -1587 1297 -2540 1673 -651 256 -1297 409
-2045 483 -186 18 -966 28 -1160 14z m4272 -3029 c28 -9 68 -28 88 -42 29 -20
1368 -1391 1556 -1594 147 -158 221 -262 239 -336 24 -95 -15 -162 -228 -393
-78 -85 -193 -214 -255 -287 -278 -331 -2837 -3301 -2897 -3364 -37 -38 -101
-113 -142 -166 -84 -106 -192 -231 -1153 -1334 -369 -423 -741 -858 -827 -965
-166 -208 -268 -315 -333 -347 -230 -117 -443 -45 -850 286 -82 67 -220 178
-305 246 -290 233 -1913 1477 -2620 2010 -1046 787 -1453 1106 -1547 1208 -87
96 -113 206 -77 328 30 101 80 182 224 364 48 61 185 247 305 415 525 735 862
1162 989 1253 69 49 181 36 323 -38 104 -53 212 -130 423 -298 135 -108 2536
-1941 2566 -1960 12 -7 2179 2505 2319 2688 39 50 107 134 153 186 45 52 457
535 915 1074 489 575 853 995 881 1016 52 40 123 68 171 68 17 0 53 -8 82 -18z"/>
<path d="M17509 25654 c-833 -976 -1636 -1927 -1784 -2113 -340 -425 -457
-562 -620 -730 -151 -156 -256 -243 -340 -283 -50 -23 -73 -28 -137 -28 -135
0 -250 50 -420 183 -51 40 -199 152 -328 248 -250 187 -522 397 -1187 917
-736 574 -1218 931 -1234 915 -5 -5 -234 -310 -508 -678 l-499 -668 46 -37
c157 -124 3272 -2512 3432 -2631 185 -138 483 -369 796 -616 l142 -112 2671
3089 c1469 1699 2672 3093 2673 3099 3 10 -1169 1221 -1181 1221 -4 0 -689
-799 -1522 -1776z"/>
<path d="M1455 27684 c-232 -34 -469 -135 -668 -285 -380 -285 -549 -669 -607
-1379 -5 -69 -17 -280 -25 -470 -8 -190 -17 -385 -20 -435 -18 -294 -57 -1215
-75 -1760 -67 -2062 -67 -4477 0 -6655 61 -1945 139 -3521 206 -4115 112
-1006 357 -1649 905 -2380 301 -402 436 -536 1624 -1620 253 -231 539 -494
635 -585 96 -91 816 -743 1600 -1449 784 -706 1435 -1295 1448 -1310 39 -44
134 -210 179 -314 218 -495 353 -1277 418 -2417 21 -378 33 -703 50 -1370 15
-584 34 -1112 40 -1118 5 -5 6218 -23 6223 -18 2 3 -1 69 -7 148 -52 694 -82
1779 -84 3038 -2 1028 3 1114 113 2035 84 703 103 911 120 1300 45 999 -164
2015 -594 2901 -408 837 -855 1336 -2076 2314 -295 236 -615 503 -780 650
-336 300 -971 890 -1080 1004 -194 204 -358 366 -720 711 -489 466 -1529 1509
-2467 2475 -920 947 -1016 1039 -1263 1202 -254 169 -473 241 -730 239 -306
-1 -542 -100 -755 -315 -192 -193 -322 -447 -382 -741 -28 -139 -25 -463 6
-605 87 -409 285 -761 751 -1335 67 -82 608 -757 1203 -1500 595 -742 1185
-1474 1311 -1625 221 -263 401 -479 642 -771 125 -151 111 -135 668 -740 225
-244 500 -536 611 -649 207 -211 248 -260 292 -356 23 -50 25 -66 21 -142 -5
-102 -25 -149 -88 -206 -58 -53 -102 -69 -185 -69 -143 1 -206 43 -505 343
-808 809 -2505 2833 -4016 4790 -159 206 -366 472 -459 590 -268 340 -408 537
-538 757 -449 758 -493 1444 -140 2183 126 265 274 450 479 601 56 41 146 107
200 147 54 39 114 84 131 100 l33 27 12 423 c10 346 9 565 -3 1195 -10 552
-14 1492 -15 3297 -1 2268 -3 2540 -18 2670 -22 197 -42 311 -81 465 -78 303
-194 505 -416 721 -203 196 -414 316 -673 380 -82 21 -131 26 -261 29 -88 2
-173 1 -190 -1z"/>
<path d="M28745 27665 c-318 -50 -610 -205 -839 -445 -107 -113 -173 -205
-236 -331 -109 -216 -174 -475 -210 -834 -8 -77 -12 -1218 -15 -3811 l-3
-3702 36 -34 c21 -19 93 -79 162 -134 496 -395 781 -858 856 -1394 22 -159 15
-487 -15 -653 -49 -274 -112 -471 -226 -702 -119 -243 -236 -416 -530 -785
-72 -91 -876 -1089 -1787 -2217 l-1656 -2053 -675 -724 c-371 -398 -690 -738
-709 -755 -109 -104 -283 -151 -396 -106 -58 24 -118 95 -138 163 -27 90 -16
183 30 278 35 71 56 97 215 254 248 246 791 822 1046 1110 167 188 269 308
430 505 77 94 236 285 355 425 278 328 328 390 490 595 73 94 202 251 285 350
218 259 2236 2829 2322 2958 283 422 398 928 313 1371 -141 731 -738 1155
-1404 997 -167 -40 -360 -131 -525 -249 -131 -93 -211 -172 -1261 -1242 -1030
-1049 -1971 -1989 -2450 -2446 -1043 -995 -1318 -1260 -1433 -1380 -70 -73
-181 -175 -245 -226 -64 -51 -162 -135 -217 -187 -55 -52 -289 -246 -520 -430
-681 -545 -868 -705 -1178 -1011 -290 -286 -487 -519 -672 -795 -642 -962
-991 -2268 -936 -3494 19 -411 45 -660 151 -1406 104 -741 133 -1023 150
-1495 45 -1275 62 -3096 30 -3495 -4 -60 -7 -111 -5 -113 3 -3 6038 -23 6041
-19 6 5 26 559 39 1087 18 707 30 1056 51 1420 75 1359 254 2215 559 2675 85
127 317 366 515 530 52 43 138 120 190 170 52 51 768 692 1590 1425 822 734
1538 1374 1590 1424 53 50 154 141 227 202 171 144 1166 1186 1288 1349 351
469 586 962 724 1517 120 484 167 912 236 2148 183 3275 194 7171 30 10735
-13 292 -29 640 -35 775 -6 135 -15 317 -21 405 -53 841 -230 1282 -622 1553
-300 207 -667 299 -992 247z"/>
</g>
</svg>
